<svg xmlns="http://www.w3.org/2000/svg" xmlns:xlink="http://www.w3.org/1999/xlink" xmlns:inkscape="http://www.inkscape.org/namespaces/inkscape" version="1.1" width="858.897" height="612.288" viewBox="0 0 858.897 612.288">
<defs>
<clipPath id="clip_1">
<path transform="matrix(1,0,0,-1,0,612.288)" d="M0 612.288H858.897V0H0Z"/>
</clipPath>
</defs>
<g inkscape:groupmode="layer" inkscape:label="Layer 1">
<g clip-path="url(#clip_1)">
<path transform="matrix(1,0,0,-1,528.4746,135.86124)" d="M0 0H35.313C49.605-14.254 61.385-31.05 69.857-49.722H28.734C21.676-31.431 11.92-14.668 0 0M19.8 13.715C-3.368 31.771-31.318 43.854-61.688 47.838-43.388 39.625-26.73 28.009-12.389 13.715ZM29.229-125.543H-12.896C-13.22-142.148-14.866-158.296-17.662-173.83H21.593C26.06-158.511 28.712-142.323 29.229-125.543M-24.638 13.715C-35.805 24.847-48.382 34.367-62.044 41.911-55.615 33.19-49.71 23.755-44.388 13.715ZM-21.646-249.388H-42.794C-48.525-260.58-54.964-271.051-62.044-280.657-47.145-272.425-33.553-261.85-21.646-249.388M-10.018-235.914C1.341-221.351 10.611-204.816 17.29-186.854H-20.311C-24.259-204.191-29.693-220.63-36.398-235.914ZM-37.651 0C-30.655-15.451-24.972-32.118-20.824-49.722H16.463C9.404-31.439-.35-14.668-12.268 0ZM29.21-112.518C28.616-95.449 25.837-78.986 21.172-63.447H-17.929C-15.001-79.208-13.282-95.63-12.918-112.518ZM-30.636-186.854H-67.194V-235.914H-46.72C-40.015-220.63-34.585-204.187-30.636-186.854M-23.214-125.543H-67.194V-173.83H-27.967C-25.171-158.296-23.536-142.14-23.214-125.543M-67.194 34.545V13.715H-54.701C-58.563 20.998-62.743 27.948-67.194 34.545M-28.246-63.447H-67.194V-112.518H-23.231C-23.6-95.63-25.32-79.208-28.246-63.447M-67.194-249.388V-273.274C-62.128-265.751-57.414-257.782-53.111-249.388ZM-47.972 0H-67.194V-49.722H-31.133C-35.289-32.122-40.972-15.451-47.972 0M41.495-112.518H84.732C84.728-112.442 84.728-112.367 84.728-112.299 84.008-95.197 80.764-78.796 75.376-63.447H33.444C38.113-78.986 40.905-95.44 41.495-112.518M33.898-173.83H75.838C81.049-158.562 84.117-142.348 84.715-125.543H41.507C40.987-142.318 38.366-158.517 33.898-173.83M2.257-235.914H38.074C51.685-221.675 62.828-205.1 70.807-186.854H29.578C22.894-204.821 13.612-221.346 2.257-235.914M-61.682-286.577C-29.379-282.334-.106-269.044 23.637-249.388H-9.385C-24.387-265.093-42.09-277.792-61.682-286.577M-71.844-300.875H-97.225L-91.785 61.69H-77.287ZM-78.107-294.718-83.362 55.53H-85.712L-90.973-294.718ZM-101.938 36.536C-188.017 36.507-257.792-33.288-257.792-119.367-257.792-205.458-188.017-275.244-101.938-275.272V-288.06C-108.333-288.06-114.659-287.71-120.883-287.015L-131.241-300.875-155.454-294.771-157.874-278.517C-163.767-276.436-169.53-274.069-175.116-271.372L-188.908-281.04-210.007-267.695-207.175-251.142C-212.004-247.28-216.634-243.172-221.014-238.812L-237.235-243.426-252.783-223.89-244.687-209.192C-247.964-203.992-250.982-198.612-253.686-193.044L-270.649-191.955-278.769-168.34-266.285-157.262C-267.66-151.272-268.708-145.17-269.43-138.955L-284.989-132.546-285.087-107.567-269.631-101.051C-268.971-94.882-267.95-88.81-266.635-82.844L-279.28-71.275-270.815-47.781-254.294-46.97C-251.633-41.378-248.694-35.94-245.456-30.703L-253.564-15.565-237.794 3.791-221.989-.914C-217.655 3.485-213.104 7.674-208.311 11.575L-210.998 28.573-189.737 41.662-176.36 32.029C-170.809 34.767-165.091 37.231-159.21 39.359L-156.462 55.972-132.154 61.69-122.299 48.069C-117.903 48.598-113.469 49.012-108.966 49.206-106.611 49.306-104.275 49.318-101.938 49.318ZM-132.425-81.074C-123.408-81.074-116.069-88.412-116.069-97.428V-147.521C-116.069-156.545-123.408-163.88-132.425-163.88-141.444-163.88-148.779-156.545-148.779-147.521V-97.428C-148.779-88.412-141.444-81.074-132.425-81.074M-132.425-88.651C-137.272-88.651-141.201-92.584-141.201-97.428V-117.172-139.714-147.521C-141.201-152.374-137.272-156.302-132.425-156.302-127.575-156.302-123.648-152.374-123.648-147.521V-139.714-117.172-97.428C-123.648-92.584-127.575-88.651-132.425-88.651M-172.188-162.714C-177.593-164.448-184.753-159.704-187.439-157.551L-190.957-165.304C-187.369-167.885-181.263-171.428-174.731-171.424-173.049-171.424-171.338-171.197-169.635-170.647-163.649-168.72-159.609-165.399-157.626-160.77-153.21-150.432-159.937-136.556-167.725-120.493-171.395-112.928-175.187-105.1-177.768-97.572-180.428-89.836-180.477-83.847-177.913-80.262-175.473-76.844-171.026-76.094-169.52-76.094-166.501-76.094-160.272-78.222-157.673-80.466V-70.802C-161.706-68.941-166.345-67.758-169.52-67.758-173.124-67.758-180.38-69.374-184.7-75.415-188.946-81.369-189.271-89.736-185.653-100.276-182.905-108.279-179.004-116.34-175.221-124.128-168.901-137.168-162.365-150.648-165.292-157.493-166.292-159.835-168.551-161.548-172.188-162.714M-204.838-162.066V-135.726H-222.396V-162.066H-229.974V-97.428C-229.974-88.412-222.635-81.074-213.619-81.074-204.602-81.074-197.265-88.412-197.265-97.428V-162.066ZM-204.838-128.55V-97.428C-204.838-92.584-208.774-88.651-213.619-88.651-218.465-88.651-222.396-92.584-222.396-97.428V-128.55Z" fill="currentColor"/>
<path transform="matrix(1,0,0,-1,0,612.288)" d="M827.123 113.301H814.33999V41.9H827.123ZM806.261 59.707V59.982C806.261 68.014 803.301 73.78 794.016 82.624 786.353 90.251 784.737 92.666 784.737 96.147V96.426C784.737 100.169 787.562 102.713 791.867 102.713 795.634 102.713 799.399 101.514 803.033 99.636V112.228C799.128 113.701 795.769 114.234 791.328 114.234 780.159 114.234 772.226 107.272 772.226 96.014V95.747C772.226 87.308 776.53 81.146 784.737 73.105 792.133 66.144 793.749 63.059 793.749 59.44V59.174C793.749 55.022 790.657 52.342 786.481 52.342 782.445 52.342 777.875 53.953 772.63 56.763V44.035C777.201 42.028 782.179 40.688 787.158 40.688 797.786 40.688 806.261 48.049 806.261 59.707M751.9 41.899H764.683V90.526C764.683 105.937 756.88 114.104 743.159 114.104 737.375 114.104 733.201 113.035 728.626 111.024V98.829C732.663 100.711 736.564 102.177 741.007 102.177 748.139 102.177 752.035 97.754 752.035 89.586V83.96C748.94 85.567 745.578 86.637 741.814 86.637 731.588 86.637 724.995 79.135 724.995 63.858V61.989C724.995 49.124 731.051 40.688 739.524 40.688 745.175 40.688 749.08 44.035 751.9 50.335ZM752.035 61.723C752.035 55.693 748.674 51.409 744.235 51.409 740.063 51.409 737.375 55.152 737.375 63.059V64.666C737.375 72.439 740.198 76.453 745.039 76.453 747.331 76.453 750.021 75.517 752.035 74.579ZM703.731 41.899H716.647V136.476H703.731V103.117C701.311 108.483 697.54 114.509 690.553 114.509 681.531 114.509 674.266 104.857 674.266 80.213V74.987C674.266 50.063 681.531 40.688 690.553 40.688 697.54 40.688 701.311 46.85 703.731 52.208ZM704.002 75.388C704.002 60.647 700.236 52.75 695.252 52.75 690.142 52.75 687.048 60.781 687.048 75.517V79.538C687.048 94.277 690.142 102.455 695.252 102.455 700.236 102.455 704.002 94.407 704.002 79.809ZM666.051 86.774V90.793C666.051 122.403 656.099 136.872 641.837 136.872 627.577 136.872 617.622 122.403 617.622 90.793V86.774C617.622 55.152 627.577 40.688 641.837 40.688 656.099 40.688 666.051 55.152 666.051 86.774M652.599 86.774C652.599 62.525 648.164 52.75 641.837 52.75 635.513 52.75 631.072 62.525 631.072 86.774V90.793C631.072 115.041 635.513 124.822 641.837 124.822 648.164 124.822 652.599 115.041 652.599 90.793ZM574.964 122.544H588.152V136.476H574.964ZM546.437 24.483 566.755 113.301H554.241L544.686 65.606 535.673 113.301H523.029L538.498 43.906 534.058 24.483ZM504.726 41.899H517.506V90.526C517.506 105.937 509.705 114.104 495.976 114.104 490.194 114.104 486.022 113.035 481.451 111.024V98.829C485.485 100.711 489.391 102.177 493.829 102.177 500.958 102.177 504.856 97.754 504.856 89.586V83.96C501.763 85.567 498.398 86.637 494.637 86.637 484.405 86.637 477.816 79.135 477.816 63.858V61.989C477.816 49.124 483.87 40.688 492.347 40.688 497.995 40.688 501.898 44.035 504.726 50.335ZM504.856 61.723C504.856 55.693 501.497 51.409 497.055 51.409 492.883 51.409 490.194 55.152 490.194 63.059V64.666C490.194 72.439 493.021 76.453 497.861 76.453 500.147 76.453 502.837 75.517 504.856 74.579ZM457.091 41.899H469.873V94.682C469.873 106.735 464.624 114.509 455.345 114.509 448.617 114.509 444.715 109.812 442.021 104.191V113.301H429.239V41.899H442.021V91.729C442.021 98.829 445.384 103.117 449.957 103.117 454.4 103.117 457.091 99.232 457.091 91.996ZM405.821 41.899H418.607V90.526C418.607 105.937 410.803 114.104 397.078 114.104 391.291 114.104 387.123 113.035 382.546 111.024V98.829C386.582 100.711 390.483 102.177 394.926 102.177 402.054 102.177 405.959 97.754 405.959 89.586V83.96C402.862 85.567 399.498 86.637 395.733 86.637 385.507 86.637 378.916 79.135 378.916 63.858V61.989C378.916 49.124 384.97 40.688 393.443 40.688 399.098 40.688 402.999 44.035 405.821 50.335ZM405.959 61.723C405.959 55.693 402.596 51.409 398.158 51.409 393.983 51.409 391.291 55.152 391.291 63.059V64.666C391.291 72.439 394.118 76.453 398.961 76.453 401.25 76.453 403.941 75.517 405.959 74.579ZM372.455 63.999V64.267C372.455 74.85 369.223 81.146 356.715 95.885 348.101 106.069 346.353 108.88 346.353 114.104V114.376C346.353 120.263 350.657 123.885 356.037 123.885 360.348 123.885 363.979 122.403 369.09 119.326V133.262C364.923 135.406 360.883 136.605 354.561 136.605 342.452 136.605 333.033 127.503 333.033 113.701V113.43C333.033 102.851 337.205 96.955 348.773 83.157 357.387 72.835 359.135 68.959 359.135 63.593V63.334C359.135 56.896 354.831 53.683 349.176 53.683 344.605 53.683 339.762 55.56 333.841 59.174V45.238C338.816 42.698 344.2 40.954 350.389 40.954 362.634 40.954 372.455 50.197 372.455 63.999M289.97 41.899H302.755V90.526C302.755 105.937 294.954 114.104 281.226 114.104 275.441 114.104 271.269 113.035 266.694 111.024V98.829C270.728 100.711 274.633 102.177 279.074 102.177 286.205 102.177 290.106 97.754 290.106 89.586V83.96C287.009 85.567 283.645 86.637 279.88 86.637 269.656 86.637 263.065 79.135 263.065 63.858V61.989C263.065 49.124 269.117 40.688 277.591 40.688 283.246 40.688 287.147 44.035 289.97 50.335ZM290.106 61.723C290.106 55.693 286.742 51.409 282.304 51.409 278.132 51.409 275.441 55.152 275.441 63.059V64.666C275.441 72.439 278.264 76.453 283.107 76.453 285.397 76.453 288.091 75.517 290.106 74.579ZM259.562 98.966H259.829V114.104C253.104 114.509 249.066 110.091 246.78 103.917V113.301H233.998V41.899H246.78V82.891C246.78 93.736 251.624 98.966 259.562 98.966M210.58 41.899H223.365V90.526C223.365 105.937 215.562 114.104 201.838 114.104 196.05 114.104 191.878 113.035 187.308 111.024V98.829C191.341 100.711 195.243 102.177 199.686 102.177 206.813 102.177 210.715 97.754 210.715 89.586V83.96C207.621 85.567 204.258 86.637 200.493 86.637 190.267 86.637 183.673 79.135 183.673 63.858V61.989C183.673 49.124 189.729 40.688 198.203 40.688 203.852 40.688 207.757 44.035 210.58 50.335ZM210.715 61.723C210.715 55.693 207.354 51.409 202.912 51.409 198.74 51.409 196.05 55.152 196.05 63.059V64.666C196.05 72.439 198.876 76.453 203.721 76.453 206.005 76.453 208.701 75.517 210.715 74.579ZM179.629 41.899 166.18 84.364 179.629 113.301H165.639L152.453 82.345V136.476H139.671V41.899H152.453V62.525L156.759 71.902 165.502 41.899ZM116.121 41.899H128.908V94.682C128.908 106.735 123.653 114.509 114.374 114.509 107.645 114.509 103.742 109.812 101.055 104.191V113.301H88.27V41.899H101.055V91.729C101.055 98.829 104.418 103.117 108.988 103.117 113.432 103.117 116.121 99.232 116.121 91.996ZM67.677 41.899H81L62.298 135.942H48.171L29.469 41.899H42.384L46.157 62.792H63.915ZM61.896 74.717H48.171L55.034 112.356ZM588.013 113.301H575.235V41.9H588.013Z" fill="currentColor"/>
</g>
</g>
</svg>
